<svg width="170" height="42" viewBox="0 0 170 42" fill="none" xmlns="http://www.w3.org/2000/svg">
<rect x="0.5" y="0.500122" width="169" height="41" rx="3.5" fill="white"/>
<path d="M13.44 26.0001H20.4V24.8641H14.832V20.7201H19.088V19.5841H14.832V15.6961H20.112V14.5601H13.44V26.0001ZM22.5665 26.0001H23.8945V20.9281C23.8945 19.4241 24.9985 18.6401 26.2305 18.6401C27.5745 18.6401 28.1985 19.2961 28.1985 20.7681V26.0001H29.5265V20.8641C29.5265 18.4321 28.3105 17.4881 26.5825 17.4881C25.2065 17.4881 24.2785 18.1761 23.8945 18.9601V17.6321H22.5665V26.0001ZM35.633 29.0561C37.969 29.0561 39.617 27.8721 39.633 25.4401V17.6321H38.305V18.9761C37.825 18.1601 36.961 17.4881 35.569 17.4881C33.265 17.4881 31.665 19.3761 31.665 21.6481V21.7601C31.665 24.0641 33.281 25.7281 35.473 25.7281C36.689 25.7281 37.825 24.9601 38.305 24.1441V25.3601C38.305 27.1521 37.265 27.9361 35.617 27.9361C34.193 27.9361 33.393 27.4401 33.201 26.4801H31.841C32.065 27.8881 33.153 29.0561 35.633 29.0561ZM35.617 24.6241C34.209 24.6241 33.041 23.5361 33.041 21.7121V21.5841C33.041 19.8241 34.033 18.5921 35.697 18.5921C37.329 18.5921 38.353 19.6801 38.353 21.5521V21.6641C38.353 23.5361 37.169 24.6241 35.617 24.6241ZM42.5122 26.0001H43.8562V13.6321H42.5122V26.0001ZM46.766 26.0001H48.094V17.6321H46.766V26.0001ZM47.406 15.8881C47.886 15.8881 48.286 15.4881 48.286 15.0081C48.286 14.5281 47.886 14.1281 47.406 14.1281C46.926 14.1281 46.526 14.5281 46.526 15.0081C46.526 15.4881 46.926 15.8881 47.406 15.8881ZM53.5641 26.1441C55.5961 26.1441 56.6361 25.1201 56.6361 23.6001C56.6361 21.8241 55.4201 21.4401 53.6921 21.1201C52.1561 20.8481 51.7401 20.5441 51.7401 19.7921C51.7401 19.0721 52.3641 18.5921 53.3241 18.5921C54.3801 18.5921 54.8921 18.9921 55.0841 19.9041H56.3641C56.1401 18.0961 54.8441 17.4881 53.3401 17.4881C52.0281 17.4881 50.5081 18.2881 50.5081 19.8401C50.5081 21.2961 51.2441 21.9041 53.4201 22.3041C54.7161 22.5441 55.3721 22.8321 55.3721 23.7121C55.3721 24.6081 54.8121 25.0401 53.5481 25.0401C52.2041 25.0401 51.6761 24.4161 51.5801 23.4241H50.2841C50.3641 25.1361 51.5641 26.1441 53.5641 26.1441ZM58.8196 26.0001H60.1476V20.9281C60.1476 19.4241 61.2516 18.6401 62.4836 18.6401C63.8276 18.6401 64.4516 19.2961 64.4516 20.7681V26.0001H65.7796V20.8641C65.7796 18.4321 64.5636 17.4881 62.8356 17.4881C61.4596 17.4881 60.5316 18.1761 60.1476 18.9601V13.6321H58.8196V26.0001Z" fill="#343446"/>
<path d="M142.364 21.9501L147.314 17.0001L148.728 18.4141L142.364 24.7781L136 18.4141L137.414 17.0001L142.364 21.9501Z" fill="#4B4B60"/>
<rect x="0.5" y="0.500122" width="169" height="41" rx="3.5" stroke="#E8E8F7"/>
</svg>
